<svg data-v-0dd9719b="" version="1.0" xmlns="http://www.w3.org/2000/svg" xmlns:xlink="http://www.w3.org/1999/xlink" width="100%" height="100%" viewBox="0 0 340.000000 250.000000" preserveAspectRatio="xMidYMid meet" color-interpolation-filters="sRGB" style="margin: auto;"> <rect data-v-0dd9719b="" x="0" y="0" width="100%" height="100%" fill="#ffffff" fill-opacity="1" class="background"></rect> <rect data-v-0dd9719b="" x="0" y="0" width="100%" height="100%" fill="url(#watermark)" fill-opacity="1" class="watermarklayer"></rect> <g data-v-0dd9719b="" fill="#1c085d" class="icon-text-wrapper icon-svg-group iconsvg" transform="translate(40.0400085457244,97.42148208618164)"><g class="iconsvg-imagesvg" transform="translate(0,0)"><g><rect fill="#1c085d" fill-opacity="0" stroke-width="2" x="0" y="0" width="55" height="54.970316029344154" class="image-rect"></rect> <svg filter="url(#colors1352049227)" x="0" y="0" width="55" height="54.970316029344154" filtersec="colorsf7264025563" class="image-svg-svg primary" style="overflow: visible;"><svg xmlns="http://www.w3.org/2000/svg" viewBox="0.04999998211860657 0 255.30889892578125 255.17001342773438"><g><g><path d="M255 38c.07 1.06.16 1.79.16 2.51 0 7-.07 14 0 21 0 2.14-.52 3-2.78 2.87-4.4-.16-8.82 0-13.23 0h-142A37.4 37.4 0 0 1 73.9 56.7a39.92 39.92 0 0 0-25.12-8.2c-15.22.08-30.45 0-45.68 0H.22V22.42c6.34-.55 12.63-.33 18.55 2.16a50.43 50.43 0 0 1 10 5.49A40.49 40.49 0 0 0 53.24 38H255zM255.18 106.24h-120.4a37.18 37.18 0 0 1-23-7.54 40.5 40.5 0 0 0-25.38-8.25c-27.63.11-55.26 0-82.88 0H.2C.13 89.47.05 88.74.05 88V66.53c0-1.8.43-2.48 2.35-2.47 14 .07 28-.06 41.94.09a36.12 36.12 0 0 1 21.82 7.47 40 40 0 0 0 25.08 8.25q80.25-.12 160.51 0c3.48 0 3.48 0 3.48 3.54zM.17 216.59v-26.27c.92 0 1.79-.12 2.67-.12h157.47a38.31 38.31 0 0 1 23.69 7.86 38.33 38.33 0 0 0 24 7.94c14.72-.05 29.45.06 44.17-.08 2.65 0 3.17.81 3.12 3.24-.16 6.9-.11 13.81 0 20.71 0 1.89-.44 2.59-2.5 2.57a38.88 38.88 0 0 1-23.79-7.77 39.89 39.89 0 0 0-24.88-8.11Q104 216.65 4 216.59zM255.18 190.22h-3.11c-13.81 0-27.61-.07-41.42 0a37.88 37.88 0 0 1-23.73-7.73 39.91 39.91 0 0 0-24.9-8.05q-79.09.08-158.2 0H.26c-.09-.91-.21-1.54-.21-2.18v-21.71c0-1.78.38-2.49 2.33-2.48 39.09 0 78.19 0 117.28.08a35.47 35.47 0 0 1 21.84 7.37 40.94 40.94 0 0 0 25.74 8.48c27.7-.12 55.4-.05 83.1 0 5.54 0 4.8-.62 4.83 4.71v18.47zM.14 132.44v-26.15c.93-.05 1.8-.14 2.68-.14H81.2a37.52 37.52 0 0 1 23.22 7.8 39.08 39.08 0 0 0 24.18 8h123.06c3.52 0 3.52 0 3.52 3.48 0 6.74-.05 13.48 0 20.22 0 1.9-.46 2.63-2.51 2.63-27-.07-53.92 0-80.88-.07a36.27 36.27 0 0 1-22.3-7.53 40.31 40.31 0 0 0-25.34-8.25q-60.42.12-120.82 0zM.15 255.16v-22.93h197.87a37.38 37.38 0 0 1 23.3 7.49 40.06 40.06 0 0 0 25.81 8.28 51.76 51.76 0 0 1 6.23.08 2.53 2.53 0 0 1 1.74 1.65c.61 5.44.56 5.44-4.95 5.44H.15zM.16 6.46V0H252c3.2 0 3.2 0 3.2 3.32 0 5.4-.1 10.82 0 16.22.06 2.23-.64 2.78-2.82 2.78-22.71-.08-45.42-.05-68.13-.05H55.98a39.93 39.93 0 0 1-24.86-8.19 37.73 37.73 0 0 0-24-7.63c-2.22.04-4.45.01-6.96.01z"></path></g></g></svg></svg> <defs><filter id="colors1352049227"><feColorMatrix type="matrix" values="0 0 0 0 0.80078125  0 0 0 0 0.546875  0 0 0 0 0.1640625  0 0 0 1 0" class="icon-fecolormatrix"></feColorMatrix></filter> <filter id="colorsf7264025563"><feColorMatrix type="matrix" values="0 0 0 0 0.99609375  0 0 0 0 0.99609375  0 0 0 0 0.99609375  0 0 0 1 0" class="icon-fecolormatrix"></feColorMatrix></filter> <filter id="colorsb1998637506"><feColorMatrix type="matrix" values="0 0 0 0 0  0 0 0 0 0  0 0 0 0 0  0 0 0 1 0" class="icon-fecolormatrix"></feColorMatrix></filter></defs></g></g> <g transform="translate(62,1.813283920288086)"><g data-gra="path-name" fill-rule="" class="tp-name iconsvg-namesvg" transform="translate(0,0)"><g transform="scale(1)"><g><path d="M3.4-33.08L3.4-33.08 3.72-33.36Q9.36-32.8 10.84-30.12L10.84-30.12Q11.8-28.48 10.72-27.16L10.72-27.16Q9.64-25.88 7.88-26.52L7.88-26.52Q7.52-26.68 7.12-26.92L7.12-26.92Q6.36-29.88 3.4-33.08ZM1-24.08L1-24.08 1.32-24.32Q6.6-23.6 7.84-21L7.84-21Q8.6-19.4 7.52-18.24L7.52-18.24Q6.36-17.04 4.68-17.8L4.68-17.8Q4.36-17.96 4.04-18.2L4.04-18.2Q3.6-21.08 1-24.08ZM11.96-27.2L11.96-27.2 12.6-27.08Q9.24-13.6 8.72-10.8L8.72-10.8Q8.24-8.4 8.28-7L8.28-7Q8.28-6.16 9.08-3.96L9.08-3.96Q9.92-1.8 9.84 0.24L9.84 0.24Q9.8 1.72 8.88 2.64L8.88 2.64Q7.96 3.6 6.52 3.6L6.52 3.6Q4.8 3.6 4.36 1.52L4.36 1.52Q4.92-1.6 4.8-4.08L4.8-4.08Q4.72-6.6 4.04-7.08L4.04-7.08Q3.32-7.6 2-7.72L2-7.72 2-8.48 3.76-8.48Q4.24-8.48 4.4-8.6L4.4-8.6Q4.6-8.72 4.88-9.32L4.88-9.32Q5.64-10.8 11.96-27.2ZM32.68-19.2L32.68-19.2 32.24-19.48Q32.96-23.68 33.12-25L33.12-25 25.64-25Q25.6-22.36 25.4-19.68L25.4-19.68 30.84-19.16Q30.72-18.28 29.52-18.12L29.52-18.12 29.52-2.72Q29.52-2.24 29.72-2.08 29.92-1.92 30.56-1.92L30.56-1.92 32.64-1.92Q34.08-1.92 34.44-1.96L34.44-1.96Q34.96-2 35.24-2.52L35.24-2.52Q35.72-3.48 37-8.52L37-8.52 37.44-8.52 37.56-2.2Q38.96-1.64 38.96-0.36L38.96-0.36Q38.96 1.08 37.4 1.72L37.4 1.72Q35.88 2.4 32.16 2.4L32.16 2.4 29.28 2.4Q26.64 2.4 25.8 1.6L25.8 1.6Q25 0.8 25-1.52L25-1.52 25-16.64Q24.04-9.96 20.88-5L20.88-5Q17.72-0.08 10.96 3.52L10.96 3.52 10.52 2.92Q13.84 0.2 15.96-2.92L15.96-2.92Q18.12-6.08 19.16-9.76L19.16-9.76Q20.24-13.48 20.6-16.88L20.6-16.88Q21-20.28 21.08-25L21.08-25 16.68-25Q17.6-20.68 15.6-19.16L15.6-19.16Q14.32-18.24 13.04-19L13.04-19Q11.72-19.8 12.16-21.44L12.16-21.44Q12.36-22.16 12.92-22.88L12.92-22.88Q14.88-24.4 15.12-28.4L15.12-28.4 15.6-28.4Q16.16-27.04 16.4-26.12L16.4-26.12 21.08-26.12Q21.08-27.24 21.08-28.48 21.08-29.72 21.08-31.28L21.08-31.28Q21.08-32.88 21.08-33.8L21.08-33.8 25.76-33.2Q25.76-31.08 25.72-29.08L25.72-29.08Q25.72-27.12 25.68-26.12L25.68-26.12 37.52-26.12 37.52-24.12Q34.76-21 32.68-19.2ZM61.96-15.24L61.96-1.8 71.92-1.8 71.92-15.24 61.96-15.24ZM71.92-16.4L71.92-29.48 61.96-29.48 61.96-16.4 71.92-16.4ZM47.36-30L47.36-8.88 49.8-8.88Q50.28-8.88 50.76-9.12L50.76-9.12Q51.64-9.64 51.64-11.32L51.64-11.32Q51.64-16.04 48.64-19.6L48.64-19.6Q50.04-24.16 51.08-30L51.08-30 47.36-30ZM62.48-30.64L76.6-30.64 76.6 1.48Q76.6 1.64 76.12 1.96L76.12 1.96Q75.68 2.28 74.72 2.56L74.72 2.56Q73.76 2.88 72.72 2.88L72.72 2.88 71.92 2.88 71.92-0.68 61.96-0.68 61.96 2.16Q61.96 2.36 61.52 2.64L61.52 2.64Q61.12 2.96 60.2 3.2L60.2 3.2Q59.32 3.48 58.24 3.48L58.24 3.48 57.44 3.48 57.44-28.88Q56.92-28.68 56.08-28.68L56.08-28.68Q52.56-22.84 49.68-19.68L49.68-19.68Q52.84-17.88 54.44-15.2L54.44-15.2Q56.04-12.56 56.04-9.92L56.04-9.92Q56.04-6.88 54.6-5.24L54.6-5.24Q53.2-3.64 49.84-3.6L49.84-3.6Q49.84-6.36 49.28-7.36L49.28-7.36Q48.8-8.08 47.36-8.4L47.36-8.4 47.36 2.12Q47.36 2.32 46.92 2.64L46.92 2.64Q46.52 2.96 45.64 3.24L45.64 3.24Q44.76 3.56 43.76 3.56L43.76 3.56 42.96 3.56 42.96-33.04 47.88-31.12 50.8-31.12 53.28-33.52 57.44-29.68 57.44-32.56 62.48-30.64ZM84.44-17.28L84.44-17.28 82.16-21.16Q84.56-21.28 93.92-22.2L93.92-22.2Q94.2-23.32 94.2-24.8L94.2-24.8 84.8-24.8 84.44-25.88 94.2-25.88 94.2-29.12 83.48-29.12 83.12-30.24 94.2-30.24 94.2-33.96 98.4-33.4Q98.4-33.4 98.4-24.96L98.4-24.96Q98.36-22.92 97.76-21.36L97.76-21.36Q97.2-19.8 95.76-18.36 94.32-16.92 91.64-15.84L91.64-15.84Q89-14.8 85.08-14.08L85.08-14.08 84.88-14.52Q91.68-16.72 93.48-20.84L93.48-20.84Q91.88-20.24 85.36-18.16L85.36-18.16Q85.08-17.48 84.44-17.28ZM82.32-13.64L98.16-13.64 98.16-1.12Q98.16 1.2 97.16 2.28 96.16 3.36 92.96 3.64L92.96 3.64Q92.84 1.52 92.28 0.84L92.28 0.84Q91.44-0.12 89.4-0.48L89.4-0.48 89.4-1.04Q92.44-0.84 93.28-0.84L93.28-0.84Q94.04-0.84 94.04-1.56L94.04-1.56 94.04-4.96Q89.96-2.44 85.4 0L85.4 0Q85.16 0.84 84.52 1L84.52 1 81.56-3.36Q84.32-3.84 94.04-6.08L94.04-6.08 94.04-12.52 82.68-12.52 82.32-13.64ZM84.12-11.36L84.12-11.36 84.4-11.64Q89.48-11.8 90.88-9.56L90.88-9.56Q91.68-8.2 90.72-7.04L90.72-7.04Q89.72-5.8 88.04-6.44L88.04-6.44Q87.84-6.52 87.6-6.64L87.6-6.64Q87.24-7.88 86.24-9.2 85.24-10.52 84.12-11.36ZM100.12-13.76L116.12-13.76 116.12-1.2Q116.12 1.16 115.04 2.24L115.04 2.24Q114 3.36 110.6 3.64L110.6 3.64Q110.48 1.44 109.92 0.76L109.92 0.76Q109.12-0.28 107.16-0.6L107.16-0.6 107.16-1.12Q110.08-0.92 110.84-0.92 111.6-0.92 111.6-1.64L111.6-1.64 111.6-5.16Q106.92-2.4 102.72-0.2L102.72-0.2Q102.48 0.52 101.8 0.8L101.8 0.8 98.8-3.72Q102.32-4.24 111.6-6.32L111.6-6.32 111.6-12.6 100.48-12.6 100.12-13.76ZM101.12-11.36L101.12-11.36 101.44-11.68Q106.68-12 108.16-9.72L108.16-9.72Q109.08-8.36 108.12-7.12L108.12-7.12Q107.12-5.88 105.4-6.48L105.4-6.48Q105.2-6.56 104.96-6.68L104.96-6.68Q104.56-7.92 103.44-9.24 102.32-10.56 101.12-11.36ZM106.76-21.24L118.64-21.24 118.64-20.12 106.76-20.12 106.76-16.4Q106.76-16.2 106.24-15.92L106.24-15.92Q105.72-15.68 104.84-15.44L104.84-15.44Q104-15.24 103.16-15.24L103.16-15.24 102.4-15.24 102.4-33.96 106.76-33.4 106.76-30.2 117.96-30.2 117.96-29.04 106.76-29.04 106.76-25.76 117.08-25.76 117.08-24.68 106.76-24.68 106.76-21.24ZM122.56-31.96L122.56-31.96 122.88-32.24Q128.96-31.2 130.64-28L130.64-28Q131.68-26.08 130.6-24.6L130.6-24.6Q129.6-23.2 127.84-23.8L127.84-23.8Q127.28-23.96 126.76-24.36L126.76-24.36Q126.44-26.24 125.24-28.32L125.24-28.32Q124.04-30.44 122.56-31.96ZM133.16-27.72L133.16-27.72 133.76-27.56Q129.28-13.4 128.68-10.92L128.68-10.92Q128-8.56 128.04-7.08L128.04-7.08Q128.08-6.28 128.88-4.24L128.88-4.24Q129.72-2.24 129.64-0.36L129.64-0.36Q129.56 1.12 128.6 2L128.6 2Q127.68 2.92 126.16 2.92L126.16 2.92Q124.4 2.92 123.88 0.92L123.88 0.92Q124.44-2.04 124.32-4.36L124.32-4.36Q124.24-6.72 123.52-7.16L123.52-7.16Q122.72-7.68 121.44-7.8L121.44-7.8 121.44-8.56 123.28-8.56Q123.64-8.56 123.76-8.6L123.76-8.6Q123.92-8.64 124.12-8.8 124.32-8.96 124.52-9.36L124.52-9.36Q125.2-10.48 126.28-12.76L126.28-12.76Q127.36-15.08 133.16-27.72ZM133.24-13.12L153.28-13.12 153.28-11Q150.48-7.2 145.56-3.92L145.56-3.92Q149.32-2.12 150.12 0.44L150.12 0.44Q150.72 2.32 149.48 3.2L149.48 3.2Q148.52 3.88 147.04 3.36L147.04 3.36Q145.56 0.96 142.44-1.6L142.44-1.6Q139.32-4.2 136.24-5.68L136.24-5.68 136.56-6.08Q140.96-5.76 144.12-4.56L144.12-4.56Q146.72-8.44 148.12-12L148.12-12 133.6-12 133.24-13.12ZM137.16-19.52L151.52-19.52 151.52-18.36 137.48-18.36 137.16-19.52ZM140.6-33.92L140.6-33.92 147.16-32.24Q147-31.52 145.4-31.32L145.4-31.32Q147.6-28.2 151.28-25.64L151.28-25.64Q154.96-23.12 158.96-21.84L158.96-21.84 158.96-21.28Q156.68-20.36 156-16.88L156-16.88Q152.36-19.28 149.44-22.92 146.52-26.56 144.88-30.88L144.88-30.88Q142.92-26.44 139.28-22.68L139.28-22.68Q135.68-18.92 130.88-16.52L130.88-16.52 130.6-17Q134.08-19.92 136.84-24.8L136.84-24.8Q139.64-29.68 140.6-33.92ZM182.32-4.56L198.92-4.56 198.92-3.4Q198.92-3.4 182.32-3.4L182.32-3.4 182.32 2.52Q182.32 2.68 181.72 2.92 181.12 3.16 180.16 3.36 179.2 3.56 178.36 3.56L178.36 3.56 177.52 3.56 177.52-3.4 161.6-3.4 161.24-4.56 177.52-4.56 177.52-7.56 180-7.36Q183.36-10.08 184.76-14.76L184.76-14.76 171.52-14.76 175.48-12.88Q175.16-12.2 174-12.36L174-12.36Q173.48-11.64 172.92-11.08L172.92-11.08Q176.68-10.76 177.36-8.88L177.36-8.88Q177.76-7.64 176.72-6.8L176.72-6.8Q175.4-5.8 173.8-6.84L173.8-6.84Q173.44-8.4 172-10.08L172-10.08Q168.28-6.44 163.48-4.84L163.48-4.84 163.12-5.32Q165.48-7.04 167.36-9.6L167.36-9.6Q169.24-12.2 170.2-14.76L170.2-14.76 163.72-14.76 163.36-15.92 178.68-15.92 178.32-16.28Q178.16-17.8 177.52-19L177.52-19Q176.24-18.08 173.12-17.88L173.12-17.88Q173-19.56 172.44-20.04L172.44-20.04Q171.52-20.8 169.68-21.08L169.68-21.08 169.68-21.6Q172.64-21.4 173.36-21.4 174.08-21.4 174.08-22.12L174.08-22.12 174.08-24.68Q169.04-21.84 165.44-20.04L165.44-20.04Q165.2-19.24 164.44-19.04L164.44-19.04 162.72-23.4Q165.76-23.88 174.08-25.88L174.08-25.88 174.08-30.76 162.4-30.76 162.04-31.92 173.68-31.92 175.68-34.24 180.2-30.84 180.16-31.92 195.56-31.92 195.6-30.04 195.6-21.96Q195.6-20.4 195-19.56L195-19.56Q194.44-18.72 192.72-18.32L192.72-18.32Q195.92-15.96 196.68-15.4L196.68-15.4Q196.52-14.76 195.56-14.76L195.56-14.76 186.04-14.76 190.16-12.92Q189.8-12.2 188.72-12.36L188.72-12.36Q188.28-11.76 187.92-11.36L187.92-11.36Q192.08-11.28 193.2-9.24L193.2-9.24Q193.88-8 192.96-7.04L192.96-7.04Q191.96-5.96 190.36-6.68L190.36-6.68Q189.44-8.32 186.96-10.36L186.96-10.36Q184.96-8.4 181.84-7.16L181.84-7.16 183.44-7.04Q183.32-6.32 182.32-6.12L182.32-6.12 182.32-4.56ZM164.2-29.12L164.2-29.12 164.44-29.56Q168.6-30.4 170.16-28.4L170.16-28.4Q171.12-27.2 170.48-26.12L170.48-26.12Q169.88-25 168.48-25.56L168.48-25.56Q166.32-28 164.2-29.12ZM181.04-29.04L181.04-29.04 181.24-29.52Q185.28-30.4 186.72-28.44L186.72-28.44Q187.6-27.32 187-26.24L187-26.24Q186.36-25.24 185.04-25.76L185.04-25.76Q183.04-28.12 181.04-29.04ZM191.08-30.76L180.52-30.76Q179.72-30.2 178.56-30.04L178.56-30.04 178.56-21.84Q178.56-20.68 178.32-20.12L178.32-20.12Q180.4-19.8 181.36-18.96L181.36-18.96Q182.36-18.16 182.28-17.32L182.28-17.32Q182.2-16.52 181.52-15.92L181.52-15.92 189.68-15.92 191.6-18.12Q191.12-18.04 190.2-17.96L190.2-17.96Q190-19.68 189.56-20.12L189.56-20.12Q188.64-20.96 186.92-21.16L186.92-21.16 186.92-21.72Q189.68-21.52 190.36-21.52L190.36-21.52Q191.08-21.52 191.08-22.24L191.08-22.24 191.08-25.08Q186.56-22.48 182.48-20.48L182.48-20.48Q182.2-19.68 181.48-19.48L181.48-19.48 179.84-23.88Q182.2-24.28 191.08-26.28L191.08-26.28 191.08-30.76Z" transform="translate(-1, 34.2400016784668)"></path></g> <!----> <!----> <!----> <!----> <!----> <!----> <!----></g></g> <g data-gra="path-slogan" fill-rule="" class="tp-slogan iconsvg-slogansvg" fill="#1c085d" transform="translate(5,45.880001068115234)"><rect x="0" height="1" y="3.2300000190734863" width="33.85902404785156"></rect> <rect height="1" y="3.2300000190734863" width="29.859024047851562" x="158.06097412109375"></rect> <g transform="translate(36.85902404785156,0)"><g transform="scale(1)"><path d="M5.98-5.08L5.98-5.08L5.08-5.08Q5-6.45 3.28-6.52L3.28-6.52Q1.68-6.48 1.68-5.27L1.68-5.27Q1.68-4.49 2.54-4.38L2.54-4.38L4.57-3.91Q6.17-3.52 6.17-1.95L6.17-1.95Q6.13 0.04 3.36 0.12L3.36 0.12Q1.84 0.12 1.21-0.51L1.21-0.51Q0.43-1.09 0.47-2.30L0.47-2.30L1.41-2.30Q1.45-0.66 3.36-0.63L3.36-0.63Q5.23-0.66 5.27-1.84L5.27-1.84Q5.43-2.81 3.71-3.13L3.71-3.13L2.23-3.44Q0.70-3.87 0.70-5.16L0.70-5.16Q0.82-7.27 3.20-7.34L3.20-7.34Q5.90-7.34 5.98-5.08ZM8.36-4.22L12.11-4.22L12.11-7.15L13.09-7.15L13.09 0L12.11 0L12.11-3.32L8.36-3.32L8.36 0L7.38 0L7.38-7.15L8.36-7.15L8.36-4.22ZM15.66-0.86L19.96-0.86L19.96 0L14.69 0L14.69-7.15L19.88-7.15L19.88-6.33L15.66-6.33L15.66-4.10L19.57-4.10L19.57-3.24L15.66-3.24L15.66-0.86ZM22.38-7.15L25.98-1.37L25.98-7.15L26.91-7.15L26.91 0L25.82 0L22.19-5.78L22.15-5.78L22.15 0L21.21 0L21.21-7.15L22.38-7.15ZM34.18-7.15L31.48-2.89L31.48 0L30.51 0L30.51-2.89L27.81-7.15L28.95-7.15L30.98-3.71L33.05-7.15L34.18-7.15ZM39.77 0L39.06-2.07L36.17-2.07L35.43 0L34.45 0L37.15-7.15L38.24-7.15L40.82 0L39.77 0ZM37.62-6.09L36.48-2.93L38.71-2.93L37.66-6.09L37.62-6.09ZM42.85-7.15L46.45-1.37L46.45-7.15L47.38-7.15L47.38 0L46.29 0L42.66-5.78L42.62-5.78L42.62 0L41.68 0L41.68-7.15L42.85-7.15ZM54.22-3.01L52.03-3.01L52.03-3.83L55.16-3.83L55.16 0L54.53 0L54.30-0.90Q53.48 0.08 51.95 0.12L51.95 0.12Q50.51 0.12 49.73-0.63L49.73-0.63Q48.55-1.72 48.59-3.63L48.59-3.63Q48.87-7.19 51.99-7.34L51.99-7.34Q54.65-7.19 55.04-5L55.04-5L54.10-5Q53.71-6.48 51.95-6.52L51.95-6.52Q49.73-6.37 49.61-3.59L49.61-3.59Q49.61-0.63 51.99-0.63L51.99-0.63Q52.85-0.63 53.48-1.09L53.48-1.09Q54.26-1.72 54.22-3.01L54.22-3.01ZM64.02-3.24L60.51-3.24L60.51 0L59.53 0L59.53-7.15L64.49-7.15L64.49-6.33L60.51-6.33L60.51-4.10L64.02-4.10L64.02-3.24ZM66.56-0.86L70.86-0.86L70.86 0L65.59 0L65.59-7.15L70.78-7.15L70.78-6.33L66.56-6.33L66.56-4.10L70.47-4.10L70.47-3.24L66.56-3.24L66.56-0.86ZM72.27-7.15L73.24-7.15L73.24 0L72.27 0L72.27-7.15ZM74.88-7.15L75.86-7.15L75.86-0.86L79.49-0.86L79.49 0L74.88 0L74.88-7.15ZM86.09-3.55L86.09-3.55Q85.94-6.37 83.59-6.52L83.59-6.52Q81.21-6.41 81.09-3.55L81.09-3.55Q81.21-0.78 83.59-0.66L83.59-0.66Q85.94-0.82 86.09-3.55ZM87.07-3.55L87.07-3.55Q86.84 0 83.59 0.12L83.59 0.12Q80.31 0 80.08-3.55L80.08-3.55Q80.27-7.27 83.59-7.34L83.59-7.34Q86.84-7.23 87.07-3.55ZM89.38-7.15L92.97-1.37L92.97-7.15L93.91-7.15L93.91 0L92.81 0L89.18-5.78L89.14-5.78L89.14 0L88.20 0L88.20-7.15L89.38-7.15ZM100.74-3.01L98.55-3.01L98.55-3.83L101.68-3.83L101.68 0L101.05 0L100.82-0.90Q100 0.08 98.48 0.12L98.48 0.12Q97.03 0.12 96.25-0.63L96.25-0.63Q95.08-1.72 95.12-3.63L95.12-3.63Q95.39-7.19 98.52-7.34L98.52-7.34Q101.17-7.19 101.56-5L101.56-5L100.63-5Q100.23-6.48 98.48-6.52L98.48-6.52Q96.25-6.37 96.13-3.59L96.13-3.59Q96.13-0.63 98.52-0.63L98.52-0.63Q99.38-0.63 100-1.09L100-1.09Q100.78-1.72 100.74-3.01L100.74-3.01ZM109.14-5.04L109.14-5.04L108.20-5.04Q107.85-6.48 106.21-6.52L106.21-6.52Q103.95-6.41 103.87-3.63L103.87-3.63Q103.87-0.66 106.25-0.66L106.25-0.66Q107.89-0.70 108.28-2.66L108.28-2.66L109.22-2.66Q108.79 0.04 106.05 0.12L106.05 0.12Q102.93 0 102.85-3.59L102.85-3.59Q103.01-7.19 106.21-7.34L106.21-7.34Q108.75-7.27 109.14-5.04ZM115.08-2.66L115.08-7.15L116.05-7.15L116.05-2.54Q115.94 0.04 113.13 0.12L113.13 0.12Q110.51 0.04 110.39-2.38L110.39-2.38L110.39-7.15L111.37-7.15L111.37-2.66Q111.41-0.70 113.16-0.66L113.16-0.66Q115.08-0.70 115.08-2.66L115.08-2.66ZM117.70-7.15L118.67-7.15L118.67 0L117.70 0L117.70-7.15Z" transform="translate(-0.466889880952381, 7.34375)"></path></g></g></g></g></g><defs v-gra="od"></defs></svg>